Coordinates
version=1
nRows=17
nColumns=36
inDegrees=yes

Units are S.I. units (second, meters, Newtons, ...)
If the header above contains a line with 'inDegrees', this indicates whether rotational values are in degrees (yes) or radians (no).

endheader
time	pelvis_tilt	pelvis_list	pelvis_rotation	pelvis_tx	pelvis_ty	pelvis_tz	hip_flexion_r	hip_adduction_r	hip_rotation_r	knee_angle_r	knee_angle_r_beta	ankle_angle_r	subtalar_angle_r	mtp_angle_r	hip_flexion_l	hip_adduction_l	hip_rotation_l	knee_angle_l	knee_angle_l_beta	ankle_angle_l	subtalar_angle_l	mtp_angle_l	lumbar_extension	lumbar_bending	lumbar_rotation	arm_flex_r	arm_add_r	arm_rot_r	elbow_flex_r	pro_sup_r	arm_flex_l	arm_add_l	arm_rot_l	elbow_flex_l	pro_sup_l
      2.38333330	     -0.97478147	      2.70077196	      0.53366171	     -0.08362866	      1.31229429	      0.09606357	     -2.24607299	     -1.47248136	     -3.60603797	      1.20910320	      0.02110283	      6.21530937	     -3.83822641	     -7.49999987	     -1.92651101	      2.06778491	     -4.96172012	      0.80116157	      0.01398291	      3.55962835	      1.33706068	     -7.49999987	     -7.14982355	     -1.48080844	     -1.89076170	      3.68473275	     -4.25532069	      2.99942077	     27.23501437	     93.54740417	      2.73825421	     -4.80088061	     -1.51901705	     24.81214624	     88.71869575
      2.40000000	     -0.99154141	      2.72779720	      0.54421352	     -0.08314451	      1.31608186	      0.09533592	     -2.21864796	     -1.51711040	     -3.73659639	      1.13208083	      0.01975854	      6.50924225	     -3.26413680	     -7.49999987	     -1.98428707	      2.08525479	     -4.97439128	      0.78917417	      0.01377369	      3.54996746	      1.47903654	     -7.49999987	     -7.11579420	     -1.53744832	     -1.91699987	      3.78374987	     -4.67245888	      6.68067706	     27.09397166	     84.37493513	      2.74685182	     -5.15099973	      1.55720613	     24.72184824	     80.25785812
      2.41666670	     -1.04822799	      2.71226107	      0.47389772	     -0.08368555	      1.31681640	      0.09555256	     -2.19910640	     -1.52798378	     -3.65424334	      1.05411766	      0.01839782	      6.43262681	     -3.06719643	     -7.49999987	     -1.95667720	      2.07134688	     -5.04650523	      0.77873843	      0.01359155	      3.54168831	      1.54898340	     -7.49999987	     -7.11455337	     -1.53446991	     -1.79552358	      3.60861120	     -4.16291458	      2.57558157	     27.28391730	     94.02962921	      2.66434214	     -4.79026949	     -1.88472667	     24.92739649	     89.48379958
      2.43333330	     -1.24633578	      2.74494444	      0.39166971	     -0.08247328	      1.31414254	      0.09553347	     -1.94451777	     -1.58276215	     -3.42361136	      1.04150380	      0.01817767	      6.55332774	     -2.91564688	     -7.49999987	     -1.81049902	      2.11918443	     -5.11052504	      0.75017671	      0.01309305	      3.51053272	      1.35778153	     -7.49999987	     -6.81045694	     -1.61634431	     -1.76024207	      3.68540425	     -4.39924122	      5.05118033	     26.89251055	     87.20902164	      2.81258159	     -4.98598527	      0.04350057	     24.43294082	     83.69937420
      2.45000000	     -1.26334918	      2.79328365	      0.41852062	     -0.08249356	      1.31599424	      0.09636914	     -1.91734766	     -1.64887939	     -3.41639840	      0.96508404	      0.01684389	      6.75908409	     -2.41381557	     -7.49999987	     -1.84579205	      2.14806431	     -5.11173017	      0.73097049	      0.01275784	      3.57640395	      1.54203221	     -7.49999987	     -6.91601616	     -1.69822425	     -1.75787208	      3.52086068	     -4.03756311	      2.38054733	     27.31314312	     93.88209239	      2.83615429	     -4.92551994	     -1.44894341	     24.61081979	     89.34755761
      2.46666670	     -1.25862081	      2.83384101	      0.34625251	     -0.08324043	      1.31601204	      0.09565148	     -1.89762431	     -1.74721542	     -3.34588404	      0.95488106	      0.01666582	      6.87045145	     -2.11291842	     -7.49999987	     -1.86652913	      2.20325675	     -5.14715107	      0.73185974	      0.01277336	      3.55233338	      1.46212113	     -7.49999987	     -7.03209524	     -1.74206468	     -1.70903014	      3.69673483	     -4.02805443	      2.54124669	     27.20299864	     94.16605591	      2.85072671	     -4.95514237	     -1.48080868	     24.79387866	     89.76220706
      2.48333330	     -1.25511727	      2.88220522	      0.40520624	     -0.07984152	      1.31481021	      0.09426018	     -1.88852068	     -1.82613314	     -3.28080914	      0.93103785	      0.01624968	      6.88757875	     -1.99344651	     -7.49999987	     -1.90760634	      2.25206445	     -5.10801182	      0.74454712	      0.01299480	      3.40163593	      1.28526414	     -7.49999987	     -7.04613135	     -1.80418164	     -1.69599034	      3.62167479	     -3.99010897	      2.37081765	     27.23614808	     94.15127827	      2.92987757	     -4.96652263	     -1.18517388	     24.66793752	     89.61760442
      2.50000000	     -1.23466860	      2.92662742	      0.37764788	     -0.08009213	      1.31784690	      0.09515732	     -1.93039144	     -1.90525726	     -3.24892442	      0.92795066	      0.01619579	      6.82916244	     -1.86834848	     -7.49999987	     -1.96126154	      2.28837448	     -5.33371050	      0.75477710	      0.01317335	      3.33279906	      1.56691876	     -7.49999987	     -7.12216805	     -1.86839809	     -1.66741532	      3.70521021	     -3.94377849	      2.40063733	     27.18493252	     94.06337709	      2.92778069	     -4.95665452	     -1.37044547	     24.74518471	     90.00453448
      2.51666670	     -1.23470610	      2.94875142	      0.45104963	     -0.07890152	      1.31392990	      0.09409855	     -1.93355425	     -1.95322435	     -3.19975890	      0.97080707	      0.01694378	      7.04844328	     -1.68672039	     -7.49999987	     -1.98618149	      2.31618298	     -5.17535447	      0.79379724	      0.01385438	      3.30124428	      1.33873157	     -7.49999987	     -7.13167373	     -1.89946527	     -1.64352726	      3.69954235	     -3.95215235	      2.56894237	     27.15744228	     93.83408042	      3.05471626	     -4.98474369	     -1.05059773	     24.59729644	     89.82012317
      2.53333330	     -1.20705736	      2.99435736	      0.51880076	     -0.07854879	      1.31625129	      0.09484526	     -2.00221395	     -2.01584650	     -3.26987272	      1.01378213	      0.01769384	      7.13472258	     -1.54560355	     -7.49999987	     -2.01994347	      2.34784960	     -5.20914195	      0.82178858	      0.01434292	      3.26041283	      1.52940957	     -7.49999987	     -7.22100807	     -1.96840123	     -1.63117416	      3.68438466	     -3.88141684	      2.38690266	     27.18587927	     94.11583073	      3.10596108	     -4.97967895	     -1.06405294	     24.58123397	     89.86789440
      2.55000000	     -1.25078795	      3.00506781	      0.49348487	     -0.07956377	      1.31836240	      0.09463466	     -1.95324462	     -2.04585951	     -3.17655211	      1.06961907	      0.01866837	      7.03528761	     -1.62442947	     -7.49999987	     -1.96897744	      2.35480835	     -5.29599292	      0.84064586	      0.01467204	      3.07156107	      1.47732651	     -7.49999987	     -7.21298228	     -2.00664191	     -1.54869222	      3.87222356	     -3.94650850	      3.61115398	     26.80998518	     89.53295854	      3.28636788	     -5.01406418	     -0.17858939	     24.27242263	     85.58172655
      2.56666670	     -1.16975484	      2.99467725	      0.52968581	     -0.07806799	      1.31553218	      0.09408527	     -2.08580496	     -2.04655532	     -3.23849827	      1.11524306	      0.01946466	      7.03484748	     -1.66986050	     -7.49999987	     -2.07321747	      2.33984194	     -5.32472905	      0.86188305	      0.01504270	      3.02884526	      1.66196869	     -7.49999987	     -7.47204336	     -1.99565382	     -1.57161048	      3.81540831	     -3.85111745	      2.50525848	     27.14445847	     94.18658563	      3.22907756	     -4.96338031	     -1.08160039	     24.61544380	     90.09892391
      2.58333330	     -1.19135653	      2.98441968	      0.52599280	     -0.07808426	      1.31666172	      0.09368970	     -2.08315829	     -2.06105359	     -3.32547923	      1.17758840	      0.02055279	      7.04799531	     -1.62130324	     -7.49999987	     -2.06060088	      2.33472829	     -5.34245303	      0.86805763	      0.01515046	      2.89983414	      1.70198400	     -7.49999987	     -7.54073203	     -1.98297428	     -1.50262446	      3.83433771	     -3.85662240	      2.43116098	     27.19134502	     94.12618328	      3.33555791	     -4.94909105	     -0.84131483	     24.54343864	     90.07147459
      2.60000000	     -1.17804315	      2.94580563	      0.58768890	     -0.07672381	      1.31711867	      0.09384713	     -2.17514122	     -2.01917987	     -3.38612987	      1.17523260	      0.02051168	      6.91071548	     -1.63903579	     -7.49999987	     -2.08372092	      2.30100917	     -5.39001186	      0.85623196	      0.01494407	      2.72787691	      1.76417717	     -7.49999987	     -7.63180478	     -1.94741309	     -1.57254264	      3.85066009	     -3.84535805	      2.46761822	     27.17095451	     94.35010666	      3.33038121	     -4.90666097	     -1.07740216	     24.61661747	     89.93574251
      2.61666670	     -1.21262925	      2.91653568	      0.59555166	     -0.07442281	      1.31563490	      0.09377875	     -2.19452013	     -1.98009673	     -3.35332673	      1.21406819	      0.02118949	      7.00007627	     -1.54790179	     -7.49999987	     -2.08759962	      2.27363040	     -5.38841214	      0.84272470	      0.01470832	      2.66779525	      1.82104191	     -7.49999987	     -7.63471074	     -1.93389031	     -1.52896144	      3.66905704	     -3.80248613	      2.15548080	     27.30310817	     94.42121130	      3.32715007	     -4.95180093	     -0.74292846	     24.62251858	     89.97455441
      2.63333330	     -1.21523077	      2.88832574	      0.65423332	     -0.07503499	      1.31705623	      0.09361292	     -2.25136254	     -1.95063540	     -3.25128440	      1.21846186	      0.02126617	      6.90999519	     -1.82029978	     -7.49999987	     -2.11174935	      2.24457808	     -5.40856675	      0.81388679	      0.01420500	      2.50153473	      1.76350874	     -7.49999987	     -7.66058110	     -1.88148200	     -1.54574757	      3.66921002	     -3.87966515	      2.81106698	     27.18764332	     92.02107425	      3.39766951	     -4.94097457	     -0.16394211	     24.48851962	     87.76708994
      2.65000000	     -1.22017384	      2.89801794	      0.70323336	     -0.07433102	      1.31597275	      0.09308957	     -2.27921800	     -1.96163849	     -3.39665421	      1.24513903	      0.02173178	      6.98714505	     -1.67107176	     -7.49999987	     -2.17018295	      2.24765838	     -5.47988537	      0.79797897	      0.01392736	      2.42228495	      1.74377739	     -7.49999987	     -7.71614710	     -1.92098898	     -1.56121058	      3.53987766	     -3.79420225	      2.12204069	     27.36025206	     94.42212318	      3.38553449	     -4.99730929	     -0.47541358	     24.64783846	     89.99213633
